<svg width="29" height="29" viewBox="0 0 29 29" fill="none" xmlns="http://www.w3.org/2000/svg">
<path d="M23.7091 17.584C23.0949 16.9445 22.3541 16.6026 21.569 16.6026C20.7902 16.6026 20.0431 16.9382 19.4036 17.5777L17.4027 19.5722C17.2381 19.4835 17.0735 19.4012 16.9152 19.3189C16.6873 19.2049 16.472 19.0973 16.2884 18.9833C14.4142 17.793 12.7109 16.2417 11.0774 14.2345C10.2859 13.2341 9.75404 12.392 9.36781 11.5372C9.88701 11.0624 10.3682 10.5685 10.8368 10.0936C11.0141 9.91632 11.1913 9.7327 11.3686 9.55542C12.6983 8.22576 12.6983 6.50353 11.3686 5.17388L9.64007 3.44532C9.44379 3.24904 9.24117 3.04642 9.05122 2.84381C8.67132 2.45124 8.27242 2.04601 7.86086 1.66611C7.24669 1.05827 6.51221 0.735352 5.73974 0.735352C4.96727 0.735352 4.22013 1.05827 3.58696 1.66611C3.58063 1.67244 3.58063 1.67244 3.5743 1.67878L1.42152 3.85055C0.61106 4.66101 0.148846 5.64876 0.0475384 6.79479C-0.104423 8.64365 0.440104 10.3659 0.857997 11.4929C1.88373 14.2599 3.41601 16.8242 5.70175 19.5722C8.47504 22.8837 11.8118 25.4986 15.6235 27.3412C17.0798 28.0313 19.0237 28.8481 21.1954 28.9874C21.3284 28.9938 21.4677 29.0001 21.5943 29.0001C23.057 29.0001 24.2853 28.4746 25.2477 27.4298C25.2541 27.4172 25.2667 27.4108 25.2731 27.3982C25.6023 26.9993 25.9822 26.6384 26.3811 26.2521C26.6534 25.9925 26.932 25.7203 27.2042 25.4353C27.8311 24.7832 28.1603 24.0234 28.1603 23.2446C28.1603 22.4594 27.8247 21.706 27.1852 21.0728L23.7091 17.584ZM25.9759 24.2513C25.9695 24.2513 25.9695 24.2576 25.9759 24.2513C25.7289 24.5172 25.4757 24.7578 25.2034 25.0238C24.7918 25.4163 24.374 25.8279 23.9814 26.2901C23.3419 26.9739 22.5884 27.2969 21.6007 27.2969C21.5057 27.2969 21.4044 27.2969 21.3094 27.2905C19.4289 27.1702 17.6813 26.4357 16.3707 25.8089C12.7869 24.074 9.64007 21.611 7.02508 18.4895C4.86597 15.8871 3.42234 13.4811 2.46625 10.8977C1.8774 9.32114 1.66212 8.09279 1.7571 6.93409C1.82042 6.19328 2.10534 5.57911 2.63087 5.05358L4.78999 2.89446C5.10024 2.6032 5.42949 2.44491 5.75241 2.44491C6.1513 2.44491 6.47422 2.68552 6.67683 2.88813C6.68317 2.89446 6.6895 2.90079 6.69583 2.90713C7.08206 3.26803 7.4493 3.6416 7.83554 4.0405C8.03182 4.24312 8.23443 4.44573 8.43705 4.65468L10.1656 6.38323C10.8368 7.05439 10.8368 7.6749 10.1656 8.34606C9.98198 8.52968 9.8047 8.7133 9.62108 8.89059C9.08921 9.43511 8.58268 9.94165 8.03182 10.4355C8.01916 10.4482 8.00649 10.4545 8.00016 10.4672C7.45563 11.0117 7.55694 11.5436 7.67091 11.9045C7.67724 11.9235 7.68358 11.9425 7.68991 11.9615C8.13946 13.0505 8.77263 14.0763 9.73505 15.2983L9.74138 15.3046C11.4889 17.4574 13.3315 19.1353 15.3639 20.4206C15.6235 20.5852 15.8895 20.7182 16.1427 20.8448C16.3707 20.9588 16.586 21.0665 16.7696 21.1804C16.7949 21.1931 16.8202 21.2121 16.8456 21.2248C17.0608 21.3324 17.2634 21.383 17.4724 21.383C17.9979 21.383 18.3272 21.0538 18.4348 20.9462L20.6003 18.7807C20.8155 18.5654 21.1574 18.3058 21.5563 18.3058C21.9489 18.3058 22.2718 18.5528 22.4681 18.768C22.4744 18.7744 22.4744 18.7744 22.4808 18.7807L25.9695 22.2695C26.6217 22.9153 26.6217 23.5801 25.9759 24.2513Z" fill="#E2AB3F"/>
</svg>
